<?xml version="1.0" standalone="no"?>
<!DOCTYPE svg PUBLIC "-//W3C//DTD SVG 20010904//EN"
 "http://www.w3.org/TR/2001/REC-SVG-20010904/DTD/svg10.dtd">
<svg version="1.0" xmlns="http://www.w3.org/2000/svg"
 width="500.000000pt" height="499.000000pt" viewBox="0 0 500.000000 499.000000"
 preserveAspectRatio="xMidYMid meet">

<g transform="translate(0.000000,499.000000) scale(0.100000,-0.100000)"
fill="#e5fffb" stroke="none">
<path d="M2830 3946 c0 -15 -40 -29 -62 -22 -32 10 -162 16 -148 6 11 -7 6
-10 -20 -9 -29 0 -31 2 -15 9 13 6 -12 8 -70 8 l-90 -2 70 -6 c71 -7 71 -7
-52 -14 -26 -2 -40 1 -36 7 4 7 -17 8 -58 4 -35 -3 -65 -10 -67 -16 -2 -7 -14
-8 -29 -5 -16 5 -24 3 -20 -3 4 -6 -4 -8 -20 -5 -16 3 -24 1 -20 -5 4 -6 -11
-14 -36 -18 -55 -10 -50 -9 -64 -18 -7 -5 -17 -6 -22 -3 -5 3 -14 -1 -21 -9
-7 -8 -18 -15 -24 -15 -6 0 -4 5 4 10 9 6 10 10 3 10 -7 0 -16 -7 -21 -15 -4
-9 -18 -17 -29 -18 -12 0 -19 -5 -17 -9 3 -4 -2 -8 -11 -8 -9 0 -41 -13 -71
-30 -30 -16 -54 -26 -54 -23 0 4 -10 -3 -22 -14 -13 -11 -43 -31 -68 -45 -25
-15 -55 -35 -66 -47 -12 -11 -24 -18 -26 -16 -2 3 -27 -17 -55 -43 -28 -26
-63 -59 -79 -73 -84 -77 -224 -240 -224 -261 0 -6 -6 -19 -14 -27 -27 -31 -66
-113 -60 -123 4 -7 2 -8 -4 -4 -7 4 -12 6 -12 4 0 -2 -11 -36 -25 -76 -14 -41
-22 -78 -19 -83 3 -5 0 -8 -8 -7 -8 2 -12 -5 -10 -17 2 -14 0 -16 -6 -7 -9 14
-72 6 -72 -9 0 -5 -26 -9 -58 -9 -32 0 -62 -3 -65 -7 -4 -3 -21 -8 -39 -10
-17 -2 -37 -8 -44 -14 -7 -6 -18 -8 -23 -5 -5 4 -12 2 -15 -3 -3 -5 -15 -7
-26 -4 -12 3 -20 0 -20 -7 0 -7 -8 -9 -21 -5 -13 4 -19 3 -16 -2 4 -6 -8 -10
-26 -11 -17 0 -33 -6 -35 -11 -2 -6 -13 -11 -24 -11 -11 0 -33 -9 -48 -20 -21
-15 -30 -17 -33 -8 -4 10 -6 10 -6 1 -1 -7 -10 -13 -21 -13 -12 0 -42 -11 -68
-24 -82 -43 -128 -96 -116 -133 5 -14 4 -15 -4 -4 -9 12 -12 10 -16 -10 -9
-34 -1 -160 10 -167 5 -4 9 -13 10 -19 2 -29 4 -34 13 -29 9 6 26 -22 23 -37
-1 -4 1 -6 6 -5 4 2 18 -7 31 -19 51 -48 273 -117 476 -148 151 -24 186 -37
207 -81 10 -19 18 -46 18 -59 0 -34 70 -226 115 -315 41 -82 109 -182 165
-244 69 -78 221 -226 230 -226 6 0 24 -12 41 -27 17 -16 37 -28 45 -28 7 0 23
-10 34 -23 12 -12 26 -19 32 -16 7 4 8 2 4 -4 -7 -12 5 -16 32 -13 7 1 15 -5
18 -14 3 -8 14 -15 23 -15 9 0 25 -6 36 -13 67 -45 271 -106 430 -128 109 -15
465 -13 465 3 0 3 14 5 30 3 17 -2 30 0 30 5 0 6 5 10 11 10 5 0 7 -5 3 -11
-4 -7 0 -9 12 -6 11 3 40 10 67 17 26 7 47 16 47 21 0 5 -12 4 -26 -1 -14 -6
-31 -10 -37 -9 -7 0 4 6 23 13 19 8 38 11 43 9 4 -2 7 1 7 6 0 6 5 11 11 11 8
0 7 -6 -2 -17 -16 -19 -19 -19 59 12 26 11 39 21 32 25 -7 4 0 12 19 19 16 7
35 10 42 5 7 -4 10 -3 6 3 -4 6 17 25 46 42 36 22 44 25 26 9 -14 -13 -35 -29
-45 -36 -19 -13 19 7 104 56 23 13 39 28 36 34 -7 10 23 48 38 48 6 0 42 26
81 58 40 32 79 61 87 66 23 12 -57 -61 -127 -116 -74 -58 -84 -74 -17 -26 140
100 346 320 328 350 -4 7 -4 10 1 6 5 -5 15 2 23 13 11 16 12 23 3 28 -9 6 -8
11 4 21 13 11 15 10 9 -6 -5 -18 -5 -18 10 0 19 23 21 40 4 30 -7 -4 -8 -3 -4
5 4 6 11 9 16 6 13 -8 53 73 46 91 -3 8 -2 12 4 9 11 -7 24 16 54 102 23 63
37 118 41 153 2 21 15 60 32 96 17 39 61 59 168 79 127 24 299 76 283 87 -9 6
-6 7 8 3 23 -6 74 12 74 26 0 5 7 5 17 2 10 -4 14 -2 10 4 -4 6 11 15 33 22
160 48 210 315 79 413 -105 79 -320 163 -532 209 -76 16 -151 36 -166 44 -19
9 -39 37 -61 84 -19 38 -38 67 -43 64 -6 -3 -7 -1 -3 6 4 6 -2 28 -14 49 -35
58 -162 212 -171 206 -5 -3 -6 1 -4 8 8 19 -40 62 -57 52 -7 -4 -10 -4 -7 0 8
9 -43 62 -161 167 -129 114 -192 154 -250 155 -48 1 -159 45 -183 73 -8 9 -20
33 -27 54 l-12 37 -64 0 c-48 0 -64 -3 -64 -14z m63 -16 c3 -11 1 -23 -4 -26
-5 -3 -9 6 -9 20 0 31 6 34 13 6z m-525 -17 c-10 -2 -26 -2 -35 0 -10 3 -2 5
17 5 19 0 27 -2 18 -5z m384 1 c20 -4 39 -13 43 -22 4 -11 2 -12 -7 -4 -7 5
-33 14 -58 20 -50 11 -35 15 22 6z m-178 -41 c4 -5 35 -9 69 -10 34 -1 74 -2
90 -2 15 -1 27 -5 27 -10 0 -5 -26 -8 -59 -6 -53 3 -58 1 -54 -16 4 -13 0 -19
-11 -19 -9 0 -16 8 -16 19 0 10 -7 22 -16 25 -12 4 -15 2 -10 -9 3 -8 3 -15
-1 -15 -6 0 -43 40 -43 47 0 6 17 3 24 -4z m-68 -22 c-3 -5 -15 -7 -26 -4 -28
7 -25 13 6 13 14 0 23 -4 20 -9z m319 -25 c14 -13 33 -23 43 -22 9 0 16 -5 15
-11 -2 -7 3 -13 11 -13 13 0 32 -35 29 -50 -1 -3 13 -5 30 -5 20 1 31 6 30 13
-4 15 14 16 19 2 2 -6 14 -12 28 -13 24 -1 80 -48 80 -66 0 -5 9 -11 20 -14
24 -6 26 -29 5 -47 -12 -10 -18 -9 -31 5 -12 11 -20 13 -27 6 -15 -15 -45 -14
-44 2 1 34 -5 46 -25 53 -13 4 -26 12 -30 18 -5 7 -8 4 -8 -6 0 -10 5 -18 10
-18 6 0 10 -4 10 -10 0 -5 -18 -9 -40 -7 -24 1 -40 7 -40 15 0 6 -5 12 -11 12
-5 0 -7 -5 -3 -12 4 -6 3 -8 -3 -5 -5 3 -26 7 -45 9 -35 2 -36 2 -30 41 4 29
2 38 -7 33 -6 -4 -8 -18 -5 -31 7 -28 -20 -47 -51 -34 -11 4 -32 8 -47 8 -16
1 -28 4 -28 9 0 4 -44 7 -97 7 -54 -1 -106 2 -115 7 -10 5 -34 3 -58 -6 -36
-12 -42 -12 -47 0 -3 8 -9 14 -14 14 -4 0 -6 -7 -3 -15 4 -10 0 -15 -15 -15
-12 0 -22 0 -23 1 -2 0 -16 -5 -32 -11 -16 -6 -47 -12 -70 -15 -39 -3 -42 -2
-59 35 -14 29 -16 44 -8 58 12 23 98 54 107 40 4 -6 1 -14 -5 -18 -9 -5 -8
-10 4 -20 13 -11 15 -9 15 9 0 11 5 21 11 21 5 0 7 5 3 12 -5 8 0 9 16 5 13
-3 29 -3 34 2 18 13 56 20 56 9 0 -5 15 -8 33 -7 18 2 37 1 42 -2 6 -4 36 -5
68 -5 33 1 57 -3 57 -9 0 -5 5 -3 10 5 6 10 10 11 10 3 0 -7 8 -13 18 -13 15
0 15 2 2 10 -11 8 -5 10 22 8 21 -1 40 1 44 5 4 4 0 7 -9 7 -9 0 -17 5 -17 10
0 13 17 13 25 0 5 -8 12 -7 23 2 14 10 15 10 5 -2 -20 -22 -15 -31 12 -18 13
6 22 16 19 22 -3 6 3 1 12 -11 9 -13 22 -23 30 -23 7 0 18 -8 24 -17 11 -17
11 -17 6 0 -3 9 -1 17 4 17 6 0 10 -4 10 -10 0 -5 7 -10 15 -10 12 0 13 3 3
19 -7 11 -14 19 -17 19 -15 -3 -41 16 -41 28 0 19 5 18 35 -10z m-357 -5 c3
-8 -1 -12 -9 -9 -7 2 -15 10 -17 17 -3 8 1 12 9 9 7 -2 15 -10 17 -17z m645
-31 c26 -12 46 -24 44 -26 -5 -6 -166 60 -167 68 0 9 57 -11 123 -42z m-906
18 c-3 -8 -6 -5 -6 6 -1 11 2 17 5 13 3 -3 4 -12 1 -19z m115 0 c-12 -12 -35
-1 -27 12 3 5 13 6 21 3 10 -4 12 -9 6 -15z m248 13 c0 -4 -16 -8 -35 -7 -46
1 -46 16 0 16 19 0 35 -4 35 -9z m-450 -25 c0 -15 -14 -35 -21 -30 -15 9 -10
34 6 34 8 0 15 -2 15 -4z m850 -57 c0 -6 -4 -7 -10 -4 -5 3 -10 11 -10 16 0 6
5 7 10 4 6 -3 10 -11 10 -16z m-855 -8 c-4 -3 -11 -7 -16 -7 -5 -1 -13 -2 -19
-3 -19 -2 -11 -60 10 -73 25 -16 26 -48 3 -48 -10 0 -31 -7 -47 -15 -40 -21
-56 -19 -56 8 0 13 -15 37 -35 55 l-34 33 -16 -31 c-16 -32 -15 -33 25 -31 16
1 30 -6 38 -19 11 -18 10 -20 -15 -20 -37 0 -73 -10 -73 -20 0 -5 8 -6 19 -3
11 3 21 -2 25 -12 4 -12 2 -16 -8 -12 -8 3 -17 0 -19 -7 -8 -20 -46 -26 -62
-9 -9 9 -15 10 -15 3 0 -6 -4 -9 -8 -6 -5 3 -18 -4 -30 -14 -12 -11 -31 -20
-42 -20 -12 0 -18 -4 -15 -10 3 -5 2 -10 -3 -10 -6 0 -20 -15 -32 -32 -12 -18
-19 -25 -16 -15 6 19 5 20 -18 11 -8 -3 -12 -12 -10 -19 7 -18 -38 -63 -56
-57 -11 4 -10 1 3 -12 21 -21 22 -36 2 -36 -8 0 -15 -7 -15 -15 0 -8 -5 -15
-11 -15 -8 0 -7 -6 2 -17 11 -13 11 -15 1 -9 -21 12 -68 -44 -63 -76 0 -3 -13
-11 -30 -17 -17 -6 -28 -15 -24 -21 3 -5 2 -10 -4 -10 -12 0 -41 -29 -41 -41
0 -6 4 -8 8 -5 5 3 9 -1 9 -8 0 -9 -7 -12 -16 -9 -13 5 -14 3 -3 -8 17 -19 15
-29 -8 -29 -11 0 -19 -3 -19 -7 3 -21 -3 -32 -21 -38 -11 -3 -20 -11 -20 -16
0 -6 4 -7 10 -4 6 3 7 -1 4 -9 -7 -19 -5 -19 -40 -1 -19 10 -23 15 -12 15 11
0 15 5 12 15 -9 21 -32 19 -39 -5 -8 -25 -24 -26 -26 -2 -5 49 -4 60 8 90 6
17 9 32 5 32 -4 0 1 5 11 11 9 6 15 14 12 20 -4 5 1 12 10 15 9 4 14 12 12 18
-3 6 2 17 9 24 8 7 14 9 14 5 1 -11 30 28 30 40 0 4 -6 5 -12 1 -7 -3 -1 5 15
18 15 14 27 32 27 40 0 8 14 27 30 41 17 15 30 34 30 43 0 11 6 14 21 9 15 -5
19 -4 14 4 -4 7 -1 18 5 26 7 8 9 15 4 16 -5 0 1 4 14 10 13 5 20 13 17 19 -3
5 0 10 8 10 8 0 22 11 30 24 10 14 30 26 52 30 19 4 33 11 30 17 -7 11 20 41
29 32 3 -4 6 -1 6 6 0 7 6 11 14 8 8 -3 20 2 28 11 9 11 10 14 1 8 -7 -4 -13
-3 -13 3 0 18 19 22 28 5 7 -13 11 -12 24 8 13 20 24 24 61 23 39 -2 48 2 72
31 22 26 31 31 42 23 10 -9 13 -8 13 1 0 8 9 11 26 7 18 -3 24 -1 20 9 -3 8
-1 14 4 14 6 0 10 -8 10 -17 0 -14 2 -15 9 -4 5 7 14 10 20 7 6 -4 11 -1 11 6
0 23 19 35 46 30 14 -2 22 -7 19 -11z m-241 -15 c-3 -9 -12 -12 -22 -9 -15 6
-9 11 25 22 1 1 0 -5 -3 -13z m86 10 c0 -3 -4 -8 -10 -11 -5 -3 -10 -1 -10 4
0 6 5 11 10 11 6 0 10 -2 10 -4z m-123 -41 c0 -8 -4 -15 -9 -15 -10 0 -11 14
-1 23 9 10 10 9 10 -8z m288 -5 c21 -24 15 -35 -14 -25 -12 3 -21 15 -21 26 0
24 12 24 35 -1z m1084 -31 c-11 -7 -8 -9 8 -9 21 0 106 -51 118 -71 4 -5 10
-7 15 -4 4 3 11 -6 14 -20 4 -14 10 -24 14 -24 18 3 32 -2 30 -10 -4 -14 63
-75 105 -94 37 -18 52 -32 21 -20 -14 5 -15 3 -5 -15 17 -32 14 -43 -11 -33
-13 4 -29 6 -35 4 -14 -5 -18 -34 -5 -32 21 4 42 -2 42 -11 0 -15 -32 -12 -54
5 -16 12 -22 12 -29 2 -7 -9 -10 -9 -14 2 -3 8 -17 25 -29 38 -13 13 -24 28
-24 34 0 5 -12 15 -27 22 -53 24 -75 53 -78 103 -1 30 -8 50 -17 55 -9 5 -19
21 -22 35 -5 19 -10 24 -18 16 -8 -8 -15 -6 -27 5 -11 12 -12 18 -4 20 7 3 9
11 6 20 -5 13 -3 14 17 3 18 -10 20 -14 9 -21z m-1384 3 c-9 -9 -35 -11 -35
-3 0 14 12 20 26 14 8 -3 12 -8 9 -11z m1345 8 c0 -5 -4 -10 -10 -10 -5 0 -10
5 -10 10 0 6 5 10 10 10 6 0 10 -4 10 -10z m-1407 -15 c1 -5 -5 -11 -14 -13
-9 -2 -16 4 -16 13 0 17 27 17 30 0z m777 5 c-12 -8 -10 -10 10 -9 14 0 43 4
65 8 22 4 58 3 80 -2 22 -5 49 -9 60 -8 33 2 118 -21 106 -29 -7 -4 6 -12 29
-19 22 -6 45 -9 50 -6 5 3 18 1 27 -5 15 -9 14 -10 -7 -5 -32 8 -6 -10 30 -19
19 -6 21 -5 10 3 -22 16 1 13 30 -4 14 -8 19 -14 12 -15 -7 0 -2 -10 12 -22
14 -13 28 -34 31 -48 4 -22 -4 -32 -58 -72 -106 -80 -112 -82 -214 -64 -133
23 -177 25 -191 10 -19 -20 -14 -26 11 -13 21 12 22 11 4 -8 -17 -19 -16 -21
19 -67 20 -26 39 -45 42 -42 7 8 62 -44 62 -58 0 -6 -13 5 -30 24 -16 19 -29
31 -30 26 0 -14 58 -75 66 -68 4 4 4 2 0 -5 -3 -6 -2 -33 4 -59 8 -33 8 -50 0
-58 -5 -5 -10 -32 -10 -58 0 -26 -4 -48 -8 -48 -13 0 -13 -90 1 -91 27 -3 53
4 68 17 8 8 20 14 26 14 6 0 26 15 46 34 20 19 51 46 69 61 60 49 5 13 -78
-52 -45 -35 -87 -63 -94 -63 -13 0 76 72 150 121 41 27 50 30 100 24 38 -4 50
-3 40 4 -12 8 -11 10 7 8 12 0 20 -4 17 -8 -5 -8 27 -22 34 -14 3 3 -1 5 -8 5
-7 0 -11 3 -8 6 3 3 28 -2 55 -11 68 -22 85 -53 77 -134 -5 -40 -3 -61 4 -61
5 0 8 -8 5 -19 -3 -10 0 -22 6 -25 6 -4 11 -16 11 -26 0 -22 46 -80 63 -80 7
0 3 7 -7 15 -11 8 -17 18 -13 21 9 9 37 -15 37 -32 0 -8 5 -14 11 -14 6 0 7 6
2 13 -4 6 5 4 20 -5 30 -20 41 -23 32 -8 -4 6 11 10 37 10 32 0 57 9 96 33 28
19 50 36 47 38 -2 3 9 6 24 7 36 3 43 -8 64 -85 19 -71 22 -195 6 -241 -13
-38 -97 -82 -156 -82 -21 0 -56 -5 -78 -10 -27 -6 -44 -5 -53 2 -10 9 -14 6
-19 -10 -3 -12 -13 -22 -22 -22 -14 0 -14 2 -1 11 11 7 4 8 -25 3 -22 -4 -42
-11 -43 -15 -2 -5 -8 -7 -13 -3 -5 3 -9 0 -9 -7 0 -8 -4 -8 -12 -2 -18 14 -97
23 -104 12 -3 -5 -22 -9 -42 -9 -28 0 -33 -3 -22 -10 8 -5 11 -10 5 -10 -5 0
-17 5 -25 10 -12 7 -10 11 10 19 21 8 14 10 -35 10 -33 -1 -54 -3 -47 -6 29
-12 -4 -32 -63 -39 -78 -8 -294 -11 -290 -3 4 5 -1 9 -10 9 -9 0 -14 -3 -12
-7 3 -5 -40 -9 -96 -11 -55 -1 -118 -7 -139 -11 -21 -5 -36 -5 -33 -1 3 4 -4
10 -15 13 -11 3 -18 1 -14 -4 3 -5 -6 -9 -20 -9 -14 0 -26 4 -26 8 0 5 -26 9
-57 10 -88 1 -194 12 -230 23 -18 6 -43 7 -55 3 -32 -11 -171 -5 -179 8 -4 7
-9 7 -13 0 -4 -6 -17 -7 -34 -3 -15 5 -42 7 -60 5 -17 -2 -32 0 -32 6 0 5 -16
7 -36 5 -23 -3 -40 0 -50 10 -9 8 -31 15 -49 15 -21 0 -37 6 -43 17 -5 9 -16
14 -23 11 -8 -2 -27 8 -42 24 -15 15 -24 28 -20 28 4 0 1 5 -7 10 -10 7 -11
13 -5 18 6 4 11 18 12 32 2 63 13 149 21 171 5 13 7 31 5 39 -2 8 4 4 14 -9
22 -31 24 -40 23 -142 -1 -72 2 -88 16 -93 21 -8 32 2 130 115 43 49 80 87 82
84 2 -2 10 2 17 9 9 8 58 15 141 20 70 4 136 12 146 17 22 12 23 42 2 60 -21
17 -46 21 -37 6 8 -14 -13 2 -91 68 -63 53 -87 94 -85 147 1 27 3 24 11 -17 8
-44 44 -102 56 -91 2 3 15 -8 29 -25 14 -16 35 -34 47 -40 11 -7 1 9 -24 34
-39 40 -47 55 -62 124 -23 104 -23 140 1 153 11 5 60 10 110 10 51 0 93 4 96
10 4 6 15 8 24 5 40 -12 101 81 101 152 -1 73 -70 173 -120 173 -10 0 -32 6
-49 13 -29 12 -30 14 -15 35 8 12 19 22 23 22 8 0 159 84 169 95 9 8 -30 -6
-44 -16 -6 -5 -14 -6 -17 -2 -4 3 -12 1 -20 -5 -7 -6 -26 -16 -42 -21 -30 -11
-30 -11 -8 7 11 10 47 26 80 36 32 9 79 24 106 32 27 9 59 13 75 10 17 -4 22
-3 14 2 -11 7 -10 10 3 16 25 9 47 7 40 -4 -4 -6 2 -9 14 -7 27 4 39 17 16 17
-43 0 0 13 67 20 112 11 126 11 108 0z m889 -34 c10 -12 8 -13 -8 -9 -12 3
-21 9 -21 14 0 14 16 11 29 -5z m-329 -41 c0 -8 -4 -15 -10 -15 -5 0 -7 7 -4
15 4 8 8 15 10 15 2 0 4 -7 4 -15z m476 -96 c3 -5 -1 -8 -8 -8 -7 1 -38 29
-68 62 l-55 61 63 -53 c34 -29 65 -57 68 -62z m-364 84 c8 -10 18 -26 21 -36
6 -16 5 -16 -24 -1 -23 11 -34 13 -42 5 -6 -6 -8 -12 -4 -12 4 -1 12 -3 17 -4
6 -1 15 -3 20 -4 6 0 10 -6 10 -12 0 -7 -7 -8 -17 -4 -10 4 -26 7 -35 7 -21
-1 -22 2 -7 30 8 15 8 19 0 14 -6 -4 -11 -3 -11 3 0 11 29 30 46 31 6 0 18 -8
26 -17z m-82 -3 c0 -5 -4 -10 -10 -10 -5 0 -10 5 -10 10 0 6 5 10 10 10 6 0
10 -4 10 -10z m270 -10 c0 -5 -2 -10 -4 -10 -3 0 -8 5 -11 10 -3 6 -1 10 4 10
6 0 11 -4 11 -10z m47 -36 c-3 -3 -12 -4 -19 -1 -8 3 -5 6 6 6 11 1 17 -2 13
-5z m-1607 -34 c0 -5 -4 -10 -10 -10 -5 0 -10 5 -10 10 0 6 5 10 10 10 6 0 10
-4 10 -10z m1440 -81 c0 -4 -7 -6 -15 -3 -8 4 -15 10 -15 15 0 4 7 6 15 3 8
-4 15 -10 15 -15z m-1457 -4 c-3 -9 -8 -14 -10 -11 -3 3 -2 9 2 15 9 16 15 13
8 -4z m1452 -24 c60 -35 116 -92 178 -182 63 -93 77 -122 77 -167 0 -46 -11
-52 -103 -52 -73 0 -118 19 -147 61 -13 19 -43 57 -67 86 -24 29 -50 65 -58
80 -15 27 -15 28 -15 4 0 -13 11 -39 26 -58 14 -18 21 -33 16 -33 -26 0 -82
123 -61 136 5 3 9 -1 10 -8 1 -12 7 4 39 115 17 57 33 60 105 18z m76 -8 c13
-15 12 -15 -8 -4 -24 12 -29 21 -14 21 5 0 15 -7 22 -17z m-1271 -33 c33 -36
51 -114 30 -133 -10 -10 -11 -5 -7 23 5 37 -15 90 -35 90 -6 0 -9 3 -5 6 3 4
-4 15 -16 25 -14 11 -17 18 -9 19 8 0 27 -14 42 -30z m-154 -3 c-7 13 0 12 56
-9 15 -6 25 -14 22 -19 -3 -5 0 -9 6 -9 7 0 9 -8 5 -19 -3 -11 -1 -22 4 -26
15 -8 9 -56 -6 -62 -7 -3 -13 -11 -13 -18 0 -24 -55 -50 -97 -46 -6 0 -28 17
-48 36 -36 36 -37 42 -6 79 11 14 12 17 2 11 -11 -6 -13 -3 -9 13 3 12 3 23
-1 25 -3 2 -1 2 6 1 7 -2 15 1 18 7 4 5 10 7 15 4 4 -3 10 2 14 10 3 8 2 14
-2 14 -24 -4 -33 4 -12 10 14 5 31 3 39 -3 11 -8 13 -8 7 1z m1214 -22 c0 -19
-5 -35 -10 -35 -6 0 -8 11 -4 28 6 26 6 26 -10 7 -16 -19 -16 -19 -5 8 17 37
29 34 29 -8z m440 25 c0 -5 -2 -10 -4 -10 -3 0 -8 5 -11 10 -3 6 -1 10 4 10 6
0 11 -4 11 -10z m-550 -20 c12 -8 11 -10 -7 -10 -13 0 -23 5 -23 10 0 13 11
13 30 0z m-351 -53 c-2 -3 -15 10 -28 27 l-24 31 28 -27 c16 -15 27 -29 24
-31z m905 22 c10 16 26 13 26 -5 0 -10 6 -14 15 -10 13 5 20 -5 16 -27 -1 -4
6 -10 14 -13 8 -4 15 -10 15 -16 0 -13 27 -39 37 -36 4 2 12 -7 18 -19 5 -13
15 -23 21 -23 7 0 11 -6 10 -12 -1 -13 67 -198 85 -232 6 -10 7 -16 1 -12 -5
3 -15 -1 -22 -9 -10 -11 -9 -18 4 -31 16 -15 14 -18 -25 -37 -33 -16 -43 -17
-49 -7 -5 7 -6 19 -3 27 3 7 0 13 -7 13 -6 0 -9 4 -5 9 3 5 1 12 -5 16 -5 3
-7 18 -4 34 4 18 0 33 -10 43 -13 13 -13 17 -2 21 8 3 12 15 9 31 -5 26 -27
40 -46 30 -9 -5 -9 -4 0 6 12 13 7 40 -9 40 -5 0 -6 -4 -3 -10 3 -6 -1 -7 -9
-4 -9 3 -16 11 -16 17 0 6 -7 18 -15 27 -13 15 -13 20 1 49 18 35 10 56 -10
28 -17 -23 -33 -22 -41 3 -3 11 -15 20 -26 20 -21 0 -25 20 -9 36 18 18 -14
38 -39 25 -16 -9 -22 -8 -30 8 -12 22 6 35 29 21 8 -5 21 -1 34 11 20 19 20
19 32 -2 7 -14 14 -18 18 -10z m-601 -18 c-3 -11 2 -21 11 -24 9 -4 16 -16 16
-29 0 -20 -1 -20 -13 -4 -11 15 -12 12 -9 -23 l4 -40 -36 11 c-52 16 -61 73
-13 80 12 2 22 10 22 18 0 8 5 18 10 22 14 10 14 10 8 -11z m802 -11 c10 -11
16 -20 13 -20 -3 0 -13 9 -23 20 -10 11 -16 20 -13 20 3 0 13 -9 23 -20z
m-2057 -56 c7 -93 -121 -206 -168 -149 -8 9 -8 15 -2 15 11 0 26 34 27 57 0 7
20 38 44 69 35 45 48 55 70 52 23 -3 26 -8 29 -44z m1132 16 c-9 -6 -11 -10
-3 -10 7 0 10 -7 6 -16 -5 -14 -7 -14 -22 1 -14 14 -14 17 -1 25 8 5 20 10 25
10 6 0 3 -5 -5 -10z m-765 -66 c-8 -20 -15 -38 -15 -40 0 -2 -10 -9 -22 -15
-23 -11 -23 -11 1 15 14 14 21 26 18 26 -4 0 0 11 9 25 23 35 27 31 9 -11z
m938 -44 c3 -13 10 -18 21 -14 9 3 16 1 16 -5 0 -18 -58 -13 -69 7 -6 10 -11
12 -11 4 0 -7 -4 -11 -8 -8 -5 3 -21 -2 -36 -10 -39 -20 -66 -18 -66 4 0 27 8
32 41 20 23 -8 37 -7 62 6 41 20 44 20 50 -4z m20 5 c-3 -9 -8 -14 -10 -11 -3
3 -2 9 2 15 9 16 15 13 8 -4z m196 -60 c17 -24 31 -49 30 -57 0 -9 -2 -9 -6 2
-3 8 -23 36 -45 62 -21 26 -33 45 -25 42 8 -3 29 -25 46 -49z m-1489 -85 c0
-13 -1 -13 -10 0 -5 8 -10 22 -10 30 0 13 1 13 10 0 5 -8 10 -22 10 -30z
m1690 -10 c11 -7 3 -10 -30 -10 -33 0 -41 3 -30 10 8 5 22 10 30 10 8 0 22 -5
30 -10z m196 2 c6 -4 11 -14 11 -22 0 -8 4 -27 8 -42 11 -41 -2 -34 -25 14
-27 56 -25 71 6 50z m324 -67 c0 -3 6 -13 15 -21 17 -18 20 -40 5 -49 -6 -3
-15 6 -20 20 -11 28 -14 72 -4 63 3 -4 5 -9 4 -13z m72 3 c-15 -15 -15 -28 -1
-28 5 0 7 5 4 10 -4 6 7 10 24 10 18 0 31 -5 31 -12 0 -9 3 -9 9 1 15 24 82
-7 102 -46 9 -18 19 -30 23 -26 3 3 1 13 -6 20 -9 11 -9 16 2 23 9 6 17 4 22
-3 6 -9 10 -8 18 3 8 13 10 12 10 -4 0 -11 3 -16 6 -13 4 4 19 -2 33 -11 14
-10 38 -23 54 -30 15 -6 27 -16 27 -22 0 -5 6 -10 14 -10 8 0 16 -6 19 -13 4
-10 -3 -14 -21 -13 -19 1 -28 8 -32 25 -3 14 -12 27 -19 29 -10 3 -11 0 -5 -9
15 -25 14 -41 -4 -34 -20 8 -42 13 -61 14 -9 1 -11 9 -7 26 4 14 2 25 -4 25
-5 0 -10 -4 -10 -9 0 -5 -18 -8 -40 -7 -40 1 -52 10 -27 19 7 3 6 6 -5 6 -9 1
-19 -3 -23 -8 -3 -5 -22 -7 -43 -5 -20 3 -44 6 -53 7 -10 1 -14 9 -11 23 3 18
0 20 -26 16 -29 -4 -53 20 -31 33 5 4 7 11 4 16 -4 5 4 9 16 9 18 0 20 -3 11
-12z m278 2 c8 -5 11 -10 5 -10 -5 0 -17 5 -25 10 -8 5 -10 10 -5 10 6 0 17
-5 25 -10z m-2665 -42 c2 -7 7 -33 9 -57 3 -26 12 -49 21 -53 8 -5 15 -14 15
-19 0 -6 -4 -7 -10 -4 -5 3 -10 1 -10 -6 0 -6 -8 -9 -20 -6 -11 3 -20 1 -20
-4 0 -5 -7 -9 -15 -9 -8 0 -15 -4 -15 -9 0 -5 -11 -16 -25 -25 -21 -14 -24
-14 -19 -1 7 18 -12 20 -20 3 -3 -7 -3 3 0 23 5 29 2 39 -13 48 -10 6 -15 11
-10 12 4 1 10 2 15 3 4 1 26 6 49 10 24 4 45 12 49 17 7 12 -8 11 -40 -1 -28
-10 -59 -3 -50 11 3 5 -5 9 -18 9 -18 0 -20 -2 -8 -10 8 -5 12 -12 8 -15 -10
-10 -41 11 -44 29 -3 19 38 34 44 16 3 -7 7 -8 11 -2 6 9 89 51 104 52 4 0 10
-6 12 -12z m-435 -23 c6 -8 9 -23 5 -34 -3 -12 -3 -26 2 -33 12 -20 12 -38 1
-38 -5 0 -2 -7 7 -16 12 -13 18 -14 31 -4 21 18 28 6 16 -30 -7 -17 -7 -28 -2
-25 6 4 6 -3 1 -17 -5 -13 -16 -22 -24 -20 -9 1 -19 -3 -24 -10 -9 -15 -12
-58 -3 -58 4 0 6 -16 6 -35 -1 -38 -18 -52 -37 -29 -10 12 -9 13 7 8 18 -5 18
-5 -1 13 -11 10 -20 29 -20 43 0 14 -10 46 -22 73 -13 26 -19 47 -13 47 6 0 9
4 6 9 -3 5 1 12 10 15 9 3 14 13 11 20 -3 8 1 17 9 20 12 5 12 9 2 26 -11 17
-10 22 2 30 14 9 7 25 -11 25 -5 0 -8 5 -6 10 1 6 5 9 10 8 4 -2 7 2 7 7 0 15
16 12 30 -5z m2410 5 c0 -5 -2 -10 -4 -10 -3 0 -8 5 -11 10 -3 6 -1 10 4 10 6
0 11 -4 11 -10z m-2524 -42 c-2 -26 -8 -34 -27 -36 -18 -2 -20 0 -10 7 8 5 11
16 8 25 -4 9 -2 16 4 16 6 0 7 5 4 10 -3 6 1 10 9 10 12 0 15 -8 12 -32z m188
7 c8 -9 12 -23 9 -31 -3 -9 0 -20 7 -24 8 -5 2 -7 -14 -7 -18 0 -26 5 -26 17
0 9 -3 20 -7 24 -4 3 -8 13 -9 21 -3 19 20 19 40 0z m2095 -7 c-9 -17 -9 -20
3 -15 8 3 21 1 29 -5 11 -8 11 -9 -3 -4 -10 3 -20 1 -23 -4 -4 -6 0 -10 8 -10
8 0 17 -7 21 -15 3 -8 11 -15 18 -15 7 0 19 -10 27 -22 12 -20 12 -21 0 -12
-15 12 -59 25 -59 18 0 -3 10 -9 23 -14 22 -9 22 -9 -4 -9 -43 -1 -76 52 -63
103 3 14 13 26 20 26 12 0 12 -4 3 -22z m85 6 c23 -9 20 -23 -4 -17 -11 3 -20
9 -20 14 0 11 3 11 24 3z m44 -19 c-3 -3 -9 2 -12 12 -6 14 -5 15 5 6 7 -7 10
-15 7 -18z m312 16 c0 -6 -4 -13 -10 -16 -5 -3 -10 1 -10 9 0 9 5 16 10 16 6
0 10 -4 10 -9z m-2842 -9 c21 -14 -8 -58 -35 -54 -13 2 -23 -2 -23 -8 0 -7 -7
-9 -16 -6 -9 3 -29 -5 -48 -19 -18 -14 -38 -25 -44 -25 -6 0 -28 -11 -48 -25
-34 -23 -55 -30 -78 -26 -4 1 -25 -4 -45 -11 -20 -7 -39 -11 -43 -10 -5 1 -8
-2 -8 -7 0 -5 -14 -12 -31 -16 -17 -4 -28 -9 -26 -12 3 -2 -4 -14 -15 -25 -17
-17 -18 -22 -7 -30 11 -7 10 -12 -8 -25 -13 -8 -23 -19 -23 -23 0 -13 71 -51
82 -44 6 4 8 2 5 -3 -4 -6 6 -16 23 -22 17 -5 30 -14 30 -18 0 -5 17 -10 38
-10 70 -2 117 -15 135 -37 10 -11 16 -15 12 -7 -6 11 1 12 36 7 95 -15 149
-28 149 -36 0 -10 27 -15 123 -25 54 -6 57 -8 51 -30 -7 -30 5 -53 17 -34 7
11 9 10 9 -4 0 -13 -5 -17 -18 -13 -9 3 -33 1 -52 -4 -27 -8 -37 -6 -52 7 -18
16 -18 16 -12 0 5 -13 2 -16 -10 -11 -9 3 -13 10 -10 15 3 5 -9 9 -26 9 -17 0
-29 4 -26 8 2 4 -4 13 -14 20 -11 6 -21 8 -24 3 -3 -5 -18 -6 -33 -4 -22 4
-25 2 -13 -6 11 -8 11 -11 2 -11 -7 0 -15 7 -18 15 -4 8 -14 15 -23 15 -14 0
-14 -2 -1 -10 12 -8 9 -9 -10 -6 -14 3 -39 7 -57 10 -17 2 -38 8 -45 12 -7 5
-20 7 -30 6 -9 -2 -19 2 -23 8 -3 5 -15 10 -26 10 -12 0 -19 7 -19 20 0 16 -4
18 -24 10 -13 -5 -27 -6 -30 -3 -3 4 -6 2 -6 -4 0 -12 -50 -9 -59 4 -3 4 -10
8 -16 9 -27 1 -64 17 -59 25 3 5 -1 9 -8 9 -7 1 -26 12 -43 25 l-30 25 35 1
c31 2 32 2 7 6 -16 3 -26 10 -24 16 2 7 -3 17 -11 23 -13 9 -10 14 16 27 18 9
34 11 38 6 3 -5 13 -9 22 -8 14 0 14 2 2 6 -18 6 -40 33 -40 47 0 6 5 5 12 -2
7 -7 17 -12 22 -12 6 0 0 7 -12 16 -12 8 -26 13 -31 9 -21 -13 -5 39 20 65 15
15 25 31 22 34 -7 7 22 36 36 36 6 0 27 7 48 16 21 9 49 21 63 27 14 5 33 13
43 18 9 5 30 7 45 3 21 -4 23 -3 12 5 -11 8 -1 9 38 4 32 -3 52 -2 52 4 0 6
20 9 44 8 28 -1 44 3 43 9 -2 10 3 12 46 15 10 0 15 6 12 11 -7 12 25 13 43 2z
m2872 -14 c0 -13 -5 -30 -10 -38 -9 -13 -11 -13 -19 0 -6 8 -6 17 -2 20 4 3
10 13 14 23 9 24 17 21 17 -5z m-59 -18 c5 0 8 -3 8 -7 -1 -5 -1 -21 0 -37 1
-24 4 -28 25 -24 34 7 55 -7 38 -24 -8 -8 -15 -9 -20 -3 -11 15 -43 18 -40 3
5 -22 22 -36 38 -30 8 3 4 -5 -8 -18 -21 -22 -21 -26 -7 -36 13 -10 15 -19 8
-46 -10 -37 -10 -109 0 -125 9 -15 -24 -42 -49 -41 -22 2 -22 -1 -10 103 2 16
0 42 -5 57 -4 17 -4 26 1 23 5 -3 4 8 -2 25 -5 17 -8 44 -5 60 4 17 2 30 -5
32 -9 3 -13 37 -9 87 1 8 7 11 17 7 9 -3 20 -6 25 -6z m352 -16 c24 5 28 3 17
-5 -12 -8 -9 -9 13 -4 18 3 26 2 23 -4 -7 -11 55 -31 99 -31 30 0 58 -12 56
-24 -3 -15 31 -66 43 -66 19 0 18 -59 -2 -81 -10 -10 -37 -22 -60 -28 -24 -5
-47 -12 -50 -16 -4 -4 4 -4 17 0 15 4 21 3 17 -3 -3 -5 -27 -10 -53 -10 -27 1
-61 -5 -78 -12 -16 -7 -43 -14 -60 -15 -16 -1 -34 -4 -40 -5 -63 -16 -87 23
-95 154 -8 119 0 146 42 146 16 0 27 4 23 10 -3 5 7 5 25 -2 17 -5 45 -8 63
-4z m423 -54 c3 -8 4 -16 2 -16 -2 -1 4 -10 13 -20 9 -11 16 -26 16 -34 1 -8
4 -22 7 -30 8 -19 -37 -65 -54 -55 -8 5 -8 10 1 21 6 7 15 11 20 8 5 -3 9 0 9
5 0 6 -7 11 -15 11 -8 0 -15 9 -15 20 0 11 -7 23 -15 26 -8 4 -13 10 -10 14 3
5 1 11 -4 15 -6 3 -6 16 1 35 5 17 14 27 19 24 5 -3 9 1 10 8 1 13 2 10 15
-32z m-2617 7 c8 -10 7 -14 -2 -14 -8 0 -14 6 -14 14 0 7 1 13 2 13 2 0 8 -6
14 -13z m1369 -12 c-3 -3 -9 2 -12 12 -6 14 -5 15 5 6 7 -7 10 -15 7 -18z
m654 -20 c2 -19 0 -35 -4 -35 -4 0 -8 16 -8 35 0 19 2 35 4 35 2 0 6 -16 8
-35z m-2923 -25 c6 -16 16 -43 22 -60 16 -42 3 -137 -21 -150 -10 -5 -44 -13
-76 -16 -51 -6 -55 -8 -34 -17 45 -18 85 -37 78 -37 -4 0 -47 9 -95 21 -48 12
-112 24 -142 28 -30 3 -56 11 -58 18 -3 9 5 9 29 3 71 -18 120 -21 116 -8 -3
8 -25 14 -54 16 -27 1 -56 5 -64 9 -8 3 -22 5 -30 4 -12 -1 -12 0 -2 7 7 5 10
16 6 25 -4 12 -10 14 -27 6 -16 -7 -33 -6 -61 6 l-38 16 23 25 c17 19 32 24
52 21 23 -3 26 -1 21 15 -7 24 4 28 216 78 112 26 126 25 139 -10z m431 10 c0
-5 -5 -10 -11 -10 -5 0 -7 5 -4 10 3 6 8 10 11 10 2 0 4 -4 4 -10z m3217 -107
c-2 -16 -4 -5 -4 22 0 28 2 40 4 28 2 -13 2 -35 0 -50z m-3430 51 c-3 -3 -12
-4 -19 -1 -8 3 -5 6 6 6 11 1 17 -2 13 -5z m2710 -51 c-3 -10 -5 -2 -5 17 0
19 2 27 5 18 2 -10 2 -26 0 -35z m478 36 c4 -6 5 -12 2 -15 -7 -7 -37 7 -37
17 0 13 27 11 35 -2z m-3880 -69 c3 -5 1 -10 -4 -10 -6 0 -11 5 -11 10 0 6 2
10 4 10 3 0 8 -4 11 -10z m4010 0 c3 -5 1 -10 -4 -10 -6 0 -11 5 -11 10 0 6 2
10 4 10 3 0 8 -4 11 -10z m-4175 -15 c0 -8 -7 -15 -15 -15 -26 0 -18 20 13 29
1 1 2 -6 2 -14z m3967 -1 c-3 -3 -12 -4 -19 -1 -8 3 -5 6 6 6 11 1 17 -2 13
-5z m-390 -26 c-3 -8 -6 -5 -6 6 -1 11 2 17 5 13 3 -3 4 -12 1 -19z m-3312 -8
c3 -5 -4 -6 -15 -3 -11 3 -22 9 -25 13 -3 5 4 6 15 3 11 -3 22 -9 25 -13z
m619 -52 c-4 -6 1 -17 10 -24 16 -11 16 -13 -3 -19 -12 -4 -18 -12 -14 -21 3
-8 -1 -14 -10 -14 -22 0 -29 41 -9 56 9 8 13 14 7 14 -5 0 -3 5 5 10 20 13 23
12 14 -2z m-264 -8 c0 -5 -6 -10 -14 -10 -8 0 -18 5 -21 10 -3 6 3 10 14 10
12 0 21 -4 21 -10z m150 -10 c0 -5 -6 -10 -14 -10 -8 0 -18 5 -21 10 -3 6 3
10 14 10 12 0 21 -4 21 -10z m3215 -10 c3 -5 -1 -10 -9 -10 -8 0 -18 5 -21 10
-3 6 1 10 9 10 8 0 18 -4 21 -10z m-3221 -19 c7 -11 -14 -20 -31 -13 -7 2 -10
8 -7 13 7 12 31 12 38 0z m2956 -31 c0 -5 -4 -10 -10 -10 -5 0 -10 5 -10 10 0
6 5 10 10 10 6 0 10 -4 10 -10z m-14 -47 c-8 -9 -36 30 -29 40 3 5 12 -1 20
-13 8 -12 12 -24 9 -27z m-121 27 c3 -5 1 -10 -4 -10 -6 0 -11 5 -11 10 0 6 2
10 4 10 3 0 8 -4 11 -10z m-2585 -18 l25 -11 -27 0 c-15 -1 -29 3 -33 9 -3 5
-12 7 -20 3 -8 -3 -15 -1 -15 5 0 12 34 9 70 -6z m2225 8 c-3 -5 -12 -10 -18
-10 -7 0 -6 4 3 10 19 12 23 12 15 0z m-150 -20 c-3 -5 -12 -10 -18 -10 -7 0
-6 4 3 10 19 12 23 12 15 0z m605 0 c0 -5 -4 -10 -10 -10 -5 0 -10 5 -10 10 0
6 5 10 10 10 6 0 10 -4 10 -10z m-2861 -26 c2 -2 2 -7 -2 -10 -3 -3 -16 2 -29
11 l-23 17 25 -7 c14 -4 27 -9 29 -11z m2761 6 c12 -8 11 -10 -7 -10 -13 0
-23 5 -23 10 0 13 11 13 30 0z m-940 -16 c0 -2 -7 -4 -15 -4 -8 0 -15 4 -15
10 0 5 7 7 15 4 8 -4 15 -8 15 -10z m790 6 c0 -5 -2 -10 -4 -10 -3 0 -8 5 -11
10 -3 6 -1 10 4 10 6 0 11 -4 11 -10z m-2527 -7 c-7 -2 -19 -2 -25 0 -7 3 -2
5 12 5 14 0 19 -2 13 -5z m167 -3 c0 -5 -4 -10 -10 -10 -5 0 -10 5 -10 10 0 6
5 10 10 10 6 0 10 -4 10 -10z m2098 -25 c-8 -19 -7 -27 6 -40 19 -20 20 -22 4
-22 -7 0 -23 -3 -35 -7 -18 -6 -22 -4 -17 8 3 9 10 16 15 16 4 0 6 7 2 15 -3
9 2 24 11 34 9 10 13 21 9 26 -5 4 -3 5 4 1 9 -5 10 -13 1 -31z m352 15 c0
-11 -40 -24 -47 -16 -4 3 -1 6 5 6 7 0 12 7 12 15 0 9 6 12 15 9 8 -4 15 -10
15 -14z m-777 3 c-7 -2 -21 -2 -30 0 -10 3 -4 5 12 5 17 0 24 -2 18 -5z m384
1 c-3 -3 -12 -4 -19 -1 -8 3 -5 6 6 6 11 1 17 -2 13 -5z m187 -9 c-7 -18 -30
-20 -40 -3 -5 8 -2 9 9 5 9 -3 19 -2 22 3 9 15 15 12 9 -5z m236 11 c0 -3 -4
-8 -10 -11 -5 -3 -10 -1 -10 4 0 6 5 11 10 11 6 0 10 -2 10 -4z m197 -2 c-3
-3 -12 -4 -19 -1 -8 3 -5 6 6 6 11 1 17 -2 13 -5z m-2573 -24 c4 -5 5 -14 1
-20 -6 -9 -10 -9 -16 1 -5 8 -6 -1 -3 -22 4 -22 2 -39 -5 -43 -6 -4 -11 -2
-11 4 0 8 -6 8 -20 0 -24 -13 -26 -7 -5 13 12 13 12 15 -5 20 -16 4 -20 0 -21
-21 -1 -27 -1 -27 -10 3 -5 19 -5 31 1 33 6 2 7 15 4 28 -6 24 -5 24 37 18 24
-4 48 -10 53 -14z m1806 10 c0 -5 -5 -10 -11 -10 -5 0 -7 5 -4 10 3 6 8 10 11
10 2 0 4 -4 4 -10z m33 -6 c-3 -9 0 -20 8 -24 9 -6 6 -10 -14 -15 -15 -4 -27
-11 -27 -17 0 -5 -7 -8 -16 -6 -10 2 -19 -3 -22 -11 -3 -9 0 -11 8 -6 8 5 11
3 8 -5 -2 -7 -26 -21 -53 -31 -60 -23 -58 -22 -52 -6 3 8 1 20 -5 28 -8 11 -9
11 -5 -3 7 -22 -45 -42 -63 -25 -10 9 -11 9 -5 -2 6 -11 2 -13 -18 -7 -16 4
-43 -1 -68 -11 -27 -11 -44 -13 -46 -6 -3 7 -20 6 -56 -2 -56 -12 -96 -13
-115 -1 -7 4 -12 3 -12 -3 0 -5 -12 -12 -27 -14 -16 -2 -4 -5 27 -6 44 -2 50
-5 30 -11 -22 -7 -19 -8 16 -9 23 -1 56 4 74 10 45 16 56 -4 28 -51 -12 -19
-29 -49 -38 -67 -10 -18 -20 -30 -23 -26 -4 3 -12 -6 -18 -21 -7 -15 -23 -29
-36 -32 -12 -4 -20 -11 -17 -16 4 -6 0 -7 -12 -1 -18 8 -92 9 -181 3 -33 -3
-42 -7 -45 -25 -3 -12 -1 -30 2 -41 7 -19 8 -19 12 1 3 12 5 10 3 -7 -1 -20 8
-36 34 -60 l36 -33 -35 40 -35 40 37 -34 c21 -19 35 -37 33 -41 -2 -4 9 -19
25 -35 41 -40 67 -148 50 -213 -23 -90 -49 -130 -105 -160 -14 -8 -16 -11 -5
-12 9 0 24 6 35 13 27 18 55 28 55 19 0 -21 -80 -43 -165 -45 -121 -3 -198 7
-335 44 -63 17 -128 33 -145 36 -16 3 -38 12 -48 21 -9 8 -20 12 -23 9 -4 -3
-21 1 -38 10 -17 10 -34 16 -38 15 -5 -1 -8 2 -8 6 0 5 -28 23 -63 40 -35 18
-74 42 -87 55 -14 12 -25 20 -26 17 -5 -13 -140 115 -287 269 -66 70 -76 86
-72 109 5 23 4 24 -5 7 -8 -16 -9 -13 -6 17 5 50 -10 126 -29 145 -22 21 -14
36 25 49 18 6 28 13 22 15 -25 8 166 -2 228 -12 145 -24 360 -39 639 -46 216
-4 292 -3 287 5 -4 6 -14 8 -23 5 -12 -5 -15 -2 -10 9 6 18 -19 33 -28 18 -4
-6 -1 -10 6 -10 7 0 9 -3 6 -7 -4 -3 -18 0 -31 7 -21 11 -27 10 -39 -1 -15
-16 -57 -16 -207 -4 -47 4 -119 9 -160 10 -41 2 -93 8 -116 13 -22 5 -50 5
-61 1 -18 -6 -20 -4 -16 14 4 17 2 19 -5 8 -6 -8 -17 -11 -25 -8 -9 3 -17 2
-19 -3 -4 -13 -79 5 -89 22 -5 8 -9 8 -9 2 0 -6 -10 -11 -22 -10 -13 1 -26 -3
-30 -9 -5 -6 -8 -3 -8 6 0 9 -7 19 -15 23 -21 8 -19 37 4 43 11 3 17 11 15 18
-4 9 8 12 48 10 97 -6 471 -17 608 -19 74 -1 141 -5 147 -9 9 -6 11 -3 7 7 -3
9 -13 16 -22 16 -8 0 -13 2 -10 5 3 3 33 -2 67 -10 33 -9 65 -14 70 -11 5 4
12 0 15 -6 5 -10 7 -10 12 0 6 14 44 17 44 3 0 -5 7 -12 16 -15 14 -5 15 -4 4
9 -11 13 -3 15 71 16 46 0 95 2 109 4 14 2 70 6 125 10 55 3 118 8 140 11 84
10 175 12 175 3 0 -8 -15 -13 -32 -10 -5 0 -8 -3 -8 -8 0 -14 28 -21 32 -9 2
6 15 12 29 13 15 1 24 8 23 19 -1 9 4 16 12 16 8 0 11 -6 7 -16z m46 9 c-4
-25 4 -44 22 -54 12 -6 19 -7 15 -1 -3 5 3 12 14 15 24 6 25 3 5 -27 -11 -16
-22 -22 -35 -19 -11 3 -17 9 -14 14 3 5 -2 9 -10 9 -10 0 -13 6 -10 15 4 9 -1
18 -11 22 -17 6 -17 7 1 20 21 15 24 16 23 6z m62 -26 c-6 -6 -18 -1 -32 12
l-22 20 31 -11 c19 -7 28 -16 23 -21z m92 18 c-3 -9 -8 -14 -10 -11 -3 3 -2 9
2 15 9 16 15 13 8 -4z m40 -6 c5 -3 2 -9 -7 -12 -12 -5 -16 0 -16 15 0 12 3
17 8 12 4 -5 11 -12 15 -15z m-2698 2 c-3 -5 5 -12 17 -14 17 -3 15 -5 -9 -6
-35 -1 -54 15 -26 22 10 3 19 5 21 6 2 0 1 -3 -3 -8z m427 -21 c6 0 19 7 28
15 14 12 23 13 45 5 27 -10 27 -11 10 -30 -12 -13 -23 -17 -33 -11 -8 5 -22 7
-31 5 -23 -6 -55 22 -45 38 7 10 9 9 12 -4 2 -10 8 -18 14 -18z m241 6 c4 -10
0 -12 -14 -9 -22 6 -26 23 -5 23 8 0 16 -6 19 -14z m840 -3 c-7 -2 -21 -2 -30
0 -10 3 -4 5 12 5 17 0 24 -2 18 -5z m-1158 -13 c3 -5 1 -10 -4 -10 -6 0 -11
5 -11 10 0 6 2 10 4 10 3 0 8 -4 11 -10z m339 -46 c5 -16 2 -23 -12 -26 -14
-4 -22 3 -29 23 -10 26 -10 28 8 19 15 -9 18 -8 12 7 -4 12 -3 15 4 8 6 -5 14
-20 17 -31z m1773 -6 c-18 -9 -36 -13 -41 -8 -21 20 38 56 60 36 9 -8 4 -15
-19 -28z m-1955 10 c-7 -7 -12 -8 -12 -2 0 6 3 14 7 17 3 4 9 5 12 2 2 -3 -1
-11 -7 -17z m2356 -27 c3 -8 0 -11 -6 -7 -6 3 -13 2 -17 -4 -3 -5 0 -10 7 -10
9 0 9 -3 -2 -10 -10 -6 -11 -10 -2 -10 6 0 12 -4 12 -10 0 -5 -16 -10 -35 -10
-34 0 -46 12 -25 25 6 3 10 13 10 21 0 8 -4 12 -10 9 -6 -3 -7 1 -4 10 8 20
65 17 72 -4z m-2572 -11 c15 0 23 -4 19 -11 -4 -6 -13 -8 -21 -5 -7 3 -16 1
-19 -4 -4 -6 0 -10 8 -10 7 0 14 -7 14 -15 0 -10 -6 -14 -16 -10 -9 3 -3 -6
12 -20 15 -14 26 -25 23 -25 -3 0 0 -13 5 -30 11 -29 29 -41 29 -19 0 8 4 8
15 -1 8 -6 19 -9 25 -5 5 3 10 2 10 -3 0 -6 -7 -12 -15 -16 -8 -3 -15 -1 -15
5 0 6 -5 7 -11 3 -17 -10 15 -36 43 -36 14 0 30 -9 37 -20 7 -12 8 -17 2 -13
-6 3 -11 1 -11 -4 0 -6 6 -11 14 -11 7 0 19 -7 26 -15 10 -12 10 -15 -4 -15
-9 0 -16 5 -16 10 0 6 -9 10 -20 10 -26 0 -25 -4 6 -46 20 -25 30 -32 39 -24
9 8 14 6 18 -5 4 -8 1 -14 -5 -12 -6 1 -12 -3 -14 -9 -3 -6 20 -23 51 -38 30
-16 53 -32 50 -36 -3 -5 7 -18 21 -29 25 -20 26 -21 5 -21 -11 0 -21 5 -21 11
0 5 -5 7 -11 4 -13 -8 19 -34 42 -35 9 0 20 -11 23 -25 4 -17 14 -25 29 -26
18 0 19 -2 5 -7 -13 -5 -15 -11 -8 -22 7 -11 10 -11 10 -2 0 7 5 10 10 7 6 -4
9 -9 6 -13 -2 -4 10 -18 27 -32 17 -14 28 -19 24 -13 -6 9 -3 11 7 7 8 -3 12
-12 10 -19 -3 -7 7 -21 21 -32 15 -10 35 -26 46 -35 17 -16 23 -15 20 4 -1 8
26 4 36 -6 4 -4 -1 -14 -11 -22 -19 -13 -19 -14 6 -14 15 0 28 -5 30 -11 2 -5
10 -11 19 -12 9 -2 28 -10 42 -20 15 -9 30 -17 34 -17 5 0 33 -13 63 -28 49
-25 94 -40 167 -55 13 -3 25 -1 28 4 3 4 13 5 21 2 11 -4 12 -8 4 -13 -16 -10
4 -23 43 -27 18 -2 26 1 21 8 -4 8 1 9 17 3 13 -5 53 -8 89 -9 36 0 71 -4 79
-9 8 -5 16 -4 22 5 6 11 9 10 14 -3 6 -15 10 -15 41 -2 19 8 34 11 34 7 0 -4
5 -2 11 4 9 9 25 7 63 -8 28 -11 53 -25 54 -30 2 -5 11 -9 19 -9 13 0 13 -3 3
-15 -12 -15 0 -22 14 -7 4 4 24 8 44 9 72 3 122 27 122 58 0 12 6 22 14 22 8
0 12 -6 9 -14 -3 -7 0 -13 6 -13 6 0 11 5 11 11 0 5 5 7 10 4 15 -9 83 15 97
35 13 18 60 32 68 20 2 -4 0 -20 -5 -36 -5 -17 -9 -21 -9 -11 -1 10 -5 16 -10
13 -12 -8 -11 -55 2 -63 5 -3 8 0 5 7 -4 13 3 23 49 73 10 10 12 17 5 17 -15
0 -15 29 1 57 13 24 23 26 50 12 14 -8 20 -4 29 18 7 15 21 34 31 42 10 7 16
18 14 25 -3 7 4 13 16 13 11 1 34 16 51 32 18 17 37 31 44 31 17 0 32 43 25
71 -5 17 -3 21 9 16 19 -7 61 20 52 34 -7 13 24 49 43 49 7 0 13 7 13 15 0 17
35 21 45 4 4 -5 -6 -29 -21 -52 -45 -66 -63 -104 -56 -113 4 -4 1 -4 -5 0 -7
4 -13 2 -13 -3 0 -6 -7 -11 -15 -11 -9 0 -12 -6 -8 -17 4 -12 0 -10 -13 6
l-20 23 1 -40 c1 -29 -3 -38 -12 -35 -7 3 -13 0 -13 -6 0 -6 -7 -11 -15 -11
-17 0 -20 -16 -5 -25 6 -4 7 -11 4 -17 -4 -7 -2 -8 4 -4 7 4 12 16 12 27 0 10
5 19 10 19 6 0 10 -7 10 -16 0 -8 4 -13 9 -9 5 3 13 0 17 -6 4 -7 3 -9 -2 -6
-6 3 -25 -10 -43 -29 -32 -32 -58 -37 -47 -8 7 19 -1 18 -21 -4 -24 -25 -31
-51 -8 -32 8 7 18 10 22 7 7 -8 -37 -46 -55 -47 -7 0 -15 -6 -18 -14 -3 -8
-14 -16 -24 -19 -18 -4 -18 -3 -5 17 9 13 12 26 8 31 -5 4 -3 5 4 1 14 -8 28
10 14 18 -17 11 -42 -6 -36 -24 3 -10 1 -21 -4 -25 -7 -3 -8 0 -5 10 6 14 3
14 -20 4 -27 -13 -37 -35 -11 -26 18 7 27 -6 19 -28 -8 -19 -30 -14 -26 6 1 8
-4 5 -13 -5 -8 -11 -15 -23 -15 -27 0 -4 -9 -11 -21 -14 -12 -4 -30 -16 -40
-26 -13 -13 -27 -18 -39 -14 -13 4 -23 -1 -32 -14 -7 -12 -20 -21 -30 -21 -9
0 -19 -4 -23 -10 -3 -5 -12 -7 -19 -4 -8 3 -17 1 -20 -5 -5 -7 -15 -7 -32 -1
-19 7 -29 6 -43 -8 -38 -33 -47 -39 -64 -36 -9 1 -17 -2 -17 -8 0 -7 -5 -6
-14 1 -11 9 -15 9 -18 -1 -3 -7 -18 -14 -34 -14 -16 -1 -47 -3 -69 -4 -22 -1
-55 1 -73 4 -26 5 -32 4 -26 -6 5 -10 4 -10 -7 0 -12 11 -12 14 1 23 12 9 12
10 -3 5 -10 -3 -24 -6 -30 -6 -7 0 -6 -4 3 -10 13 -9 13 -10 0 -10 -9 0 -21 5
-28 12 -9 9 -12 9 -12 0 0 -9 -5 -10 -19 -2 -25 13 -41 13 -21 0 11 -7 5 -8
-21 -6 -20 2 -40 5 -45 8 -5 3 -21 4 -36 2 -15 -1 -30 2 -33 7 -6 9 0 11 45
13 16 1 26 8 28 20 4 18 3 19 -13 3 -12 -13 -21 -14 -35 -7 -28 15 -37 12 -43
-11 -3 -12 -10 -18 -17 -14 -8 5 -8 10 0 20 9 11 5 14 -21 13 -29 -1 -30 -2
-14 -15 17 -12 17 -13 2 -13 -9 0 -18 5 -18 10 -1 6 -2 14 -3 19 -2 16 -17 26
-39 26 -15 0 -21 5 -19 17 2 12 -3 15 -17 11 -15 -4 -22 1 -26 20 -5 19 -12
24 -31 22 -13 -1 -24 2 -24 6 0 5 -5 9 -11 9 -8 0 -7 -5 1 -15 7 -9 18 -14 24
-12 6 2 21 -8 33 -23 20 -24 21 -29 8 -40 -13 -11 -14 -10 -9 5 5 13 4 16 -4
11 -11 -6 -17 5 -13 27 0 4 -4 7 -10 7 -6 0 -8 -7 -5 -15 7 -20 -21 -32 -37
-16 -7 7 -7 11 -1 11 13 0 14 31 2 47 -5 6 -18 10 -30 8 -15 -3 -18 0 -14 12
6 14 4 14 -10 2 -15 -12 -17 -12 -12 1 5 15 -27 50 -46 50 -6 0 -24 7 -39 15
-27 14 -28 13 -22 -5 4 -12 2 -20 -5 -20 -6 0 -9 4 -5 9 6 10 -13 26 -30 26
-5 0 -10 7 -10 15 0 9 -10 15 -25 15 -14 0 -25 5 -25 12 0 14 -40 53 -54 53
-5 0 -12 -6 -14 -12 -3 -7 -6 -3 -6 8 -1 26 -26 48 -45 41 -8 -3 -17 0 -20 8
-3 9 1 12 12 9 9 -2 6 1 -8 7 -56 26 -89 39 -99 39 -7 0 -11 6 -10 13 3 20
-12 47 -28 47 -8 0 -11 5 -8 10 3 6 -1 10 -10 10 -8 0 -18 7 -21 15 -4 8 -12
15 -20 15 -8 0 -14 8 -14 18 0 13 -2 14 -9 4 -10 -17 -52 63 -44 84 3 8 0 14
-6 14 -6 0 -11 6 -11 14 0 8 -7 17 -16 20 -9 4 -14 9 -11 12 2 3 -6 17 -19 31
-13 14 -21 29 -18 34 3 5 0 9 -5 9 -6 0 -11 5 -11 11 0 6 -9 24 -21 40 -11 16
-22 35 -23 42 -2 7 -15 36 -29 66 -14 30 -24 58 -21 63 3 5 0 25 -6 44 -10 30
-10 38 1 45 8 5 20 7 27 4 8 -3 25 -5 38 -5z m2274 0 c0 -5 6 -10 14 -10 8 0
27 -10 41 -23 28 -24 28 -20 0 -144 -7 -31 -177 -256 -213 -281 -41 -30 -59
-28 -117 12 -54 36 -99 93 -110 138 -4 16 -10 26 -14 24 -3 -2 -5 37 -5 87 l2
92 -7 -70 -7 -70 -2 56 c-4 116 18 148 106 157 26 2 88 12 137 22 102 21 175
25 175 10z m-543 -56 c-3 -3 -12 -4 -19 -1 -8 3 -5 6 6 6 11 1 17 -2 13 -5z
m778 -24 c-4 -7 2 -9 19 -4 20 5 26 2 26 -10 0 -9 -7 -16 -16 -16 -10 0 -14
-6 -11 -14 4 -10 1 -13 -9 -9 -17 6 -17 3 -4 -31 7 -20 6 -24 -8 -23 -11 0
-18 10 -19 25 0 14 -7 28 -15 33 -10 7 -10 9 0 9 7 0 11 4 7 9 -3 5 2 17 11
25 18 18 28 21 19 6z m-33 -107 c-2 -13 -11 -23 -19 -23 -8 0 -11 5 -8 10 3 6
2 10 -4 10 -6 0 -8 6 -5 14 3 8 13 14 23 13 13 -1 16 -7 13 -24z m-167 -67
c-37 -49 -43 -46 -8 3 15 22 30 38 32 36 1 -2 -9 -20 -24 -39z m151 1 c1 -15
-7 -34 -18 -43 -19 -18 -16 -52 5 -66 7 -4 6 -12 -2 -22 -14 -16 -100 -23
-102 -8 0 4 -2 15 -4 25 -2 12 3 17 21 17 17 0 22 4 18 15 -4 8 1 17 10 21 9
4 16 18 16 34 0 31 25 63 44 57 6 -2 11 -16 12 -30z m-2290 -37 c13 0 24 -4
24 -9 0 -14 -53 3 -56 17 -1 7 0 8 3 2 2 -5 16 -10 29 -10z m1756 -119 c63
-66 90 -105 35 -50 -25 26 -48 45 -50 43 -7 -8 -56 99 -50 110 4 6 10 -4 14
-23 4 -19 25 -53 51 -80z m302 44 c-14 -19 -29 -35 -31 -35 -5 0 7 18 36 53
26 31 23 18 -5 -18z m-478 7 c6 -4 15 -22 19 -39 4 -19 13 -33 21 -33 10 0 13
-8 10 -25 -5 -27 3 -32 22 -13 7 7 12 8 12 2 0 -6 -11 -20 -25 -32 -25 -22
-39 -16 -40 18 0 8 -6 14 -13 12 -8 -1 -11 2 -7 8 3 5 0 13 -8 16 -9 3 -18 16
-21 30 -8 31 -28 31 -42 0 -15 -32 -2 -55 20 -36 18 14 26 10 30 -13 1 -9 12
-24 25 -34 l23 -19 -29 -14 c-15 -8 -30 -17 -33 -20 -3 -3 -14 -12 -25 -20
-19 -13 -19 -13 1 10 21 25 39 75 24 65 -5 -3 -11 1 -14 7 -3 7 -3 1 0 -14 5
-21 2 -28 -10 -28 -9 0 -16 6 -16 13 0 8 -3 7 -9 -3 -6 -8 -7 -18 -5 -22 3 -4
1 -8 -5 -8 -17 0 -22 19 -11 40 8 14 8 26 0 40 -9 16 -8 20 5 20 12 0 13 4 6
19 -6 10 -7 22 -3 26 4 4 -2 3 -14 -3 -16 -9 -21 -8 -21 3 0 15 31 30 45 21 4
-2 19 4 32 15 27 20 39 23 56 11z m797 -37 c-3 -9 -8 -14 -10 -11 -3 3 -2 9 2
15 9 16 15 13 8 -4z m-71 -2 c-6 -2 -10 -9 -6 -14 3 -5 0 -9 -5 -9 -6 0 -11 7
-11 15 0 8 8 15 18 14 10 0 12 -3 4 -6z m-292 -27 c0 -2 -8 -10 -17 -17 -16
-13 -17 -12 -4 4 13 16 21 21 21 13z m-20 -40 c0 -3 -4 -8 -10 -11 -5 -3 -10
-1 -10 4 0 6 5 11 10 11 6 0 10 -2 10 -4z m-310 -20 c0 -2 -8 -10 -17 -17 -16
-13 -17 -12 -4 4 13 16 21 21 21 13z m75 -17 c11 -16 1 -19 -13 -3 -7 8 -8 14
-3 14 5 0 13 -5 16 -11z m185 2 c0 -5 -7 -12 -16 -15 -14 -5 -15 -4 -4 9 14
17 20 19 20 6z m267 -8 c-14 -14 -19 -15 -29 -4 -7 8 -8 11 -3 8 6 -3 17 -2
25 4 23 14 26 11 7 -8z m-307 -23 c0 -5 -2 -10 -4 -10 -3 0 -8 5 -11 10 -3 6
-1 10 4 10 6 0 11 -4 11 -10z m287 -50 c-22 -17 -61 -24 -51 -9 2 4 -2 9 -8
12 -7 3 3 4 22 3 32 -1 35 1 33 24 -3 24 -2 24 12 6 13 -17 12 -21 -8 -36z
m-788 10 c11 -24 11 -24 -3 -6 -9 11 -16 24 -16 30 0 12 5 7 19 -24z m91 0 c0
-5 -8 -10 -17 -10 -15 0 -16 2 -3 10 19 12 20 12 20 0z m390 -35 c-7 -9 -15
-13 -17 -11 -6 6 20 36 26 30 2 -2 -2 -10 -9 -19z m-400 11 c0 -3 -4 -8 -10
-11 -5 -3 -10 -1 -10 4 0 6 5 11 10 11 6 0 10 -2 10 -4z m155 -3 c-37 -9 -39
-22 -3 -17 34 6 35 5 30 -21 -3 -21 -16 -32 -49 -47 -54 -24 -72 -19 -66 16 7
32 57 76 86 75 21 -1 21 -2 2 -6z m573 -43 c-12 -16 -26 -30 -32 -30 -5 0 3
14 19 30 16 17 30 30 32 30 2 0 -6 -13 -19 -30z m-789 -74 c1 -6 -5 -1 -13 9
-8 11 -12 24 -8 29 5 9 20 -17 21 -38z m638 12 c-3 -8 -6 -5 -6 6 -1 11 2 17
5 13 3 -3 4 -12 1 -19z m98 2 c-10 -11 -20 -18 -23 -15 -7 6 18 35 31 35 5 0
2 -9 -8 -20z m-755 -50 c0 -5 -5 -10 -11 -10 -5 0 -7 5 -4 10 3 6 8 10 11 10
2 0 4 -4 4 -10z m495 -160 c3 -5 1 -10 -4 -10 -6 0 -11 5 -11 10 0 6 2 10 4
10 3 0 8 -4 11 -10z m-1358 -76 c-3 -3 -12 -4 -19 -1 -8 3 -5 6 6 6 11 1 17
-2 13 -5z m243 -54 c0 -5 -5 -10 -11 -10 -5 0 -7 5 -4 10 3 6 8 10 11 10 2 0
4 -4 4 -10z m869 -4 c-2 -2 -15 -9 -29 -15 -24 -11 -24 -11 -6 3 16 13 49 24
35 12z"/>
<path d="M2720 3779 c0 -5 5 -7 10 -4 6 3 10 8 10 11 0 2 -4 4 -10 4 -5 0 -10
-5 -10 -11z"/>
<path d="M2390 3756 c0 -2 9 -6 20 -9 11 -3 20 -1 20 4 0 5 -9 9 -20 9 -11 0
-20 -2 -20 -4z"/>
<path d="M2686 3733 c-6 -14 -5 -15 5 -6 7 7 10 15 7 18 -3 3 -9 -2 -12 -12z"/>
<path d="M2193 3719 c9 -5 17 -17 17 -24 0 -8 5 -15 10 -15 11 0 13 11 4 34
-3 9 -16 16 -28 16 -19 -1 -19 -2 -3 -11z"/>
<path d="M3018 3695 c2 -14 6 -25 8 -25 2 0 4 11 4 25 0 14 -4 25 -9 25 -4 0
-6 -11 -3 -25z"/>
<path d="M1353 3133 c-13 -5 -19 -33 -7 -33 3 0 14 5 25 10 34 19 19 38 -18
23z"/>
<path d="M1300 3119 c0 -5 5 -7 10 -4 6 3 10 8 10 11 0 2 -4 4 -10 4 -5 0 -10
-5 -10 -11z"/>
<path d="M2395 3630 c-3 -5 -2 -10 4 -10 5 0 13 5 16 10 3 6 2 10 -4 10 -5 0
-13 -4 -16 -10z"/>
<path d="M2443 3633 c9 -2 25 -2 35 0 9 3 1 5 -18 5 -19 0 -27 -2 -17 -5z"/>
<path d="M1483 2293 c9 -2 23 -2 30 0 6 3 -1 5 -18 5 -16 0 -22 -2 -12 -5z"/>
<path d="M1555 2282 c6 -6 39 -13 75 -16 50 -4 58 -3 35 4 -47 16 -122 23
-110 12z"/>
<path d="M2873 2243 c15 -2 37 -2 50 0 12 2 0 4 -28 4 -27 0 -38 -2 -22 -4z"/>
<path d="M2955 2240 c-3 -5 -1 -10 4 -10 6 0 11 5 11 10 0 6 -2 10 -4 10 -3 0
-8 -4 -11 -10z"/>
<path d="M2878 2223 c12 -2 30 -2 40 0 9 3 -1 5 -23 4 -22 0 -30 -2 -17 -4z"/>
<path d="M2388 2203 c7 -3 16 -2 19 1 4 3 -2 6 -13 5 -11 0 -14 -3 -6 -6z"/>
<path d="M1928 3303 c7 -3 16 -2 19 1 4 3 -2 6 -13 5 -11 0 -14 -3 -6 -6z"/>
<path d="M1888 3243 c7 -3 16 -2 19 1 4 3 -2 6 -13 5 -11 0 -14 -3 -6 -6z"/>
<path d="M1616 2822 c-2 -4 -1 -14 4 -22 7 -11 9 -9 7 8 -1 24 -3 26 -11 14z"/>
<path d="M1620 2729 c0 -5 5 -7 10 -4 6 3 10 8 10 11 0 2 -4 4 -10 4 -5 0 -10
-5 -10 -11z"/>
<path d="M895 2400 c3 -5 8 -10 11 -10 2 0 4 5 4 10 0 6 -5 10 -11 10 -5 0 -7
-4 -4 -10z"/>
<path d="M3206 2174 c-4 -11 -3 -20 3 -22 6 -2 9 -8 5 -13 -3 -5 0 -9 5 -9 12
0 13 16 2 44 -7 19 -8 19 -15 0z"/>
<path d="M3245 2180 c3 -5 12 -7 20 -3 21 7 19 13 -6 13 -11 0 -18 -4 -14 -10z"/>
<path d="M3281 2171 c-12 -8 -12 -12 2 -26 10 -9 17 -12 17 -7 0 6 3 17 6 26
7 18 -4 20 -25 7z"/>
<path d="M1830 2155 c0 -8 5 -15 10 -15 6 0 10 7 10 15 0 8 -4 15 -10 15 -5 0
-10 -7 -10 -15z"/>
<path d="M3075 2160 c-3 -5 -2 -10 4 -10 5 0 13 5 16 10 3 6 2 10 -4 10 -5 0
-13 -4 -16 -10z"/>
<path d="M3135 2160 c4 -6 11 -8 16 -5 14 9 11 15 -7 15 -8 0 -12 -5 -9 -10z"/>
<path d="M3030 2144 c0 -8 5 -12 10 -9 6 4 8 11 5 16 -9 14 -15 11 -15 -7z"/>
<path d="M3008 2144 c-5 -4 -8 -16 -8 -28 0 -14 3 -17 11 -9 6 6 9 19 7 28 -1
9 -6 13 -10 9z"/>
<path d="M1836 2115 c4 -8 8 -15 10 -15 2 0 4 7 4 15 0 8 -4 15 -10 15 -5 0
-7 -7 -4 -15z"/>
<path d="M3060 2120 c0 -5 7 -7 15 -4 8 4 15 8 15 10 0 2 -7 4 -15 4 -8 0 -15
-4 -15 -10z"/>
<path d="M2942 2111 c-11 -6 -10 -10 4 -15 9 -3 19 -4 22 -1 3 3 0 5 -7 5 -7
0 -9 5 -6 10 7 12 4 12 -13 1z"/>
<path d="M3325 2110 c-3 -5 -1 -10 4 -10 6 0 11 5 11 10 0 6 -2 10 -4 10 -3 0
-8 -4 -11 -10z"/>
<path d="M2806 2053 c-4 -4 -15 -8 -24 -8 -55 -4 -63 -6 -58 -14 4 -5 25 -9
48 -8 31 2 42 7 44 20 2 19 1 21 -10 10z"/>
<path d="M2675 2043 c-38 -9 -40 -23 -2 -23 26 0 37 4 37 15 0 16 -2 16 -35 8z"/>
<path d="M2919 1843 c-13 -16 -12 -17 4 -4 16 13 21 21 13 21 -2 0 -10 -8 -17
-17z"/>
<path d="M2730 1829 c0 -5 5 -7 10 -4 6 3 10 8 10 11 0 2 -4 4 -10 4 -5 0 -10
-5 -10 -11z"/>
<path d="M1980 1395 c0 -6 84 -55 95 -55 9 0 -29 29 -62 48 -24 13 -33 15 -33
7z"/>
<path d="M2618 1223 c6 -2 18 -2 25 0 6 3 1 5 -13 5 -14 0 -19 -2 -12 -5z"/>
<path d="M3320 1290 c0 -5 5 -10 10 -10 6 0 10 5 10 10 0 6 -4 10 -10 10 -5 0
-10 -4 -10 -10z"/>
<path d="M2578 1143 c7 -3 16 -2 19 1 4 3 -2 6 -13 5 -11 0 -14 -3 -6 -6z"/>
<path d="M2150 1136 c0 -2 7 -9 15 -16 13 -11 14 -10 9 4 -5 14 -24 23 -24 12z"/>
<path d="M2426 1023 c5 -5 12 -12 16 -18 4 -6 8 -2 8 8 0 9 -7 17 -17 17 -9 0
-12 -3 -7 -7z"/>
<path d="M2410 999 c0 -5 5 -7 10 -4 6 3 10 8 10 11 0 2 -4 4 -10 4 -5 0 -10
-5 -10 -11z"/>
<path d="M3135 1060 c-3 -6 1 -7 9 -4 18 7 21 14 7 14 -6 0 -13 -4 -16 -10z"/>
</g>
</svg>
